<?xml version="1.0" encoding="UTF-8" standalone="no"?>
<!DOCTYPE svg PUBLIC "-//W3C//DTD SVG 1.1//EN" "http://www.w3.org/Graphics/SVG/1.1/DTD/svg11.dtd">
<svg width="100%" height="100%" viewBox="0 0 1945 1402" version="1.1" xmlns="http://www.w3.org/2000/svg" xmlns:xlink="http://www.w3.org/1999/xlink" xml:space="preserve" xmlns:serif="http://www.serif.com/" style="fill-rule:evenodd;clip-rule:evenodd;stroke-linejoin:round;stroke-miterlimit:2;">
    <g transform="matrix(1,0,0,1,0,-42.8863)">
        <g id="Artboard2" transform="matrix(0.975568,0,0,0.953504,0,42.8863)">
            <rect x="0" y="0" width="1993.5" height="1469.49" style="fill:none;"/>
            <clipPath id="_clip1">
                <rect x="0" y="0" width="1993.5" height="1469.49"/>
            </clipPath>
            <g clip-path="url(#_clip1)">
                <g transform="matrix(1.57317,0,0,1.6535,-903.517,-455.008)">
                    <rect x="602.171" y="302.34" width="1210.69" height="703.852" style="fill:white;"/>
                </g>
                <g id="_2024-11-24_16h04_41" serif:id="2024-11-24_16h04_41" transform="matrix(1.58519,0,0,1.62187,83.3683,152.425)">
                    <use xlink:href="#_Image2" x="0" y="0" width="537px" height="585px"/>
                </g>
                <g id="_2024-11-24_16h09_16" serif:id="2024-11-24_16h09_16" transform="matrix(1.56381,0,0,1.59999,934.616,152.425)">
                    <use xlink:href="#_Image3" x="0" y="0" width="623px" height="593px"/>
                </g>
                <g transform="matrix(6.26089,0,0,3.3674,497.241,327.052)">
                    <path d="M-69.3,-94.99C-68.112,-95.602 -49.007,-95.696 79.335,-95.696C178.029,-95.744 227.054,-95.602 227.945,-95.273C229.776,-94.614 232.499,-92.024 233.909,-89.671C235.295,-87.317 236.557,-83.786 237.349,-79.973L237.943,-77.148L238.017,88.329C238.092,272.166 238.215,257.619 236.433,263.268C234.676,268.823 232.078,272.731 228.935,274.473C227.722,275.132 221.214,275.226 160.829,275.226L94.06,275.226L93.887,276.921C93.59,279.981 93.961,293.539 94.481,298.058C95.446,306.532 97.104,313.453 99.381,318.772L100.667,321.691L105.691,322.021C112.571,322.444 122.421,323.574 129.424,324.704C145.189,327.199 155.533,330.683 159.914,334.826C161.745,336.568 161.844,337.085 161.844,344.571L161.844,351.114L161.052,352.574C160.408,353.657 158.33,355.21 157.538,355.728C151.4,359.73 135.587,363.543 116.803,365.614C95.644,367.874 63.719,367.874 42.56,365.614C23.776,363.543 7.963,359.73 1.825,355.728C1.033,355.21 -1.046,353.657 -1.689,352.574L-2.481,351.114L-2.481,344.571C-2.481,337.085 -2.382,336.568 -0.551,334.826C3.83,330.683 14.174,327.199 29.939,324.704C36.942,323.574 46.792,322.444 53.672,322.021L58.695,321.691L59.982,318.772C62.259,313.453 63.917,306.532 64.882,298.058C65.402,293.539 65.773,279.981 65.476,276.921L65.303,275.226L-1.466,275.226C-61.851,275.226 -68.359,275.132 -69.572,274.473C-72.715,272.731 -75.313,268.823 -77.071,263.268C-78.852,257.619 -78.729,272.166 -78.654,88.329L-78.58,-77.148L-77.986,-79.973C-76.378,-87.693 -73.334,-92.966 -69.3,-94.99ZM231.787,-63.829C231.787,-74.843 227.086,-83.786 221.296,-83.786L-61.933,-83.786C-67.723,-83.786 -72.424,-74.843 -72.424,-63.829L-72.424,241.872C-72.424,252.886 -67.723,261.829 -61.933,261.829L221.296,261.829C227.086,261.829 231.787,252.886 231.787,241.872L231.787,-63.829Z" style="fill:rgb(88,101,242);"/>
                </g>
                <g transform="matrix(0.897773,0,0,0.918548,-538.736,34.5562)">
                    <g transform="matrix(108.346,0,0,108.346,2032.21,131.076)">
                    </g>
                    <text x="795.862px" y="131.076px" style="font-family:'Keifont';font-size:108.346px;fill:rgb(45,47,53);">Discordでフレンドを招待</text>
                </g>
                <g transform="matrix(0.705912,0,0,0.722247,-26.0972,1070.6)">
                    <g transform="matrix(108.346,0,0,108.346,2799.41,131.076)">
                    </g>
                    <text x="795.862px" y="131.076px" style="font-family:'Keifont';font-size:108.346px;fill:rgb(45,47,53);">参加ボタン押すと自動で招待リンク発行！</text>
                </g>
            </g>
        </g>
    </g>
    <defs>
        <image id="_Image2" width="537px" height="585px" xlink:href="concept-diagram-image1.png"/>
        <image id="_Image3" width="623px" height="593px" xlink:href="concept-diagram-image2.png"/>
    </defs>
</svg>
