<?xml version="1.0" encoding="UTF-8" standalone="no"?>
<!DOCTYPE svg PUBLIC "-//W3C//DTD SVG 1.1//EN" "http://www.w3.org/Graphics/SVG/1.1/DTD/svg11.dtd">
<svg width="100%" height="100%" viewBox="0 0 1232 1444" version="1.1" xmlns="http://www.w3.org/2000/svg" xmlns:xlink="http://www.w3.org/1999/xlink" xml:space="preserve" xmlns:serif="http://www.serif.com/" style="fill-rule:evenodd;clip-rule:evenodd;stroke-linecap:round;stroke-linejoin:round;stroke-miterlimit:1.5;">
    <g transform="matrix(3.86214,0,0,2.03026,563.133,520.867)">
        <path d="M-105.116,334.469C-85.932,334.469 -70.357,354.292 -70.357,378.708L-70.357,515.119L-139.875,515.119L-139.875,378.708C-139.875,354.292 -124.3,334.469 -105.116,334.469ZM-105.116,334.469C-124.3,334.469 -139.875,307.906 -139.875,275.187C-139.875,242.469 -124.3,215.905 -105.116,215.905C-85.932,215.905 -70.357,242.469 -70.357,275.187C-70.357,307.906 -85.932,334.469 -105.116,334.469Z" style="fill:rgb(188,55,60);"/>
    </g>
    <g transform="matrix(1.67629,0,0,0.881195,1296.94,-120.892)">
        <path d="M-105.116,334.469C-124.3,334.469 -139.875,307.906 -139.875,275.187C-139.875,242.469 -124.3,215.905 -105.116,215.905C-85.932,215.905 -70.357,242.469 -70.357,275.187C-70.357,307.906 -85.932,334.469 -105.116,334.469ZM-105.116,334.469C-85.932,334.469 -70.357,354.292 -70.357,378.708L-70.357,515.119L-139.875,515.119L-139.875,378.708C-139.875,354.292 -124.3,334.469 -105.116,334.469Z" style="fill:rgb(60,157,51);"/>
    </g>
    <g transform="matrix(2.33591,0,0,1.22794,371.695,-220.705)">
        <path d="M-105.116,334.469C-124.3,334.469 -139.875,307.906 -139.875,275.187C-139.875,242.469 -124.3,215.905 -105.116,215.905C-85.932,215.905 -70.357,242.469 -70.357,275.187C-70.357,307.906 -85.932,334.469 -105.116,334.469ZM-105.116,334.469C-85.932,334.469 -70.357,354.292 -70.357,378.708L-70.357,515.119L-139.875,515.119L-139.875,378.708C-139.875,354.292 -124.3,334.469 -105.116,334.469Z" style="fill:rgb(60,157,51);"/>
    </g>
    <g transform="matrix(3.3784,0,0,1.77597,1447.33,651.858)">
        <path d="M-105.116,334.469C-85.932,334.469 -70.357,354.292 -70.357,378.708L-70.357,515.119L-139.875,515.119L-139.875,378.708C-139.875,354.292 -124.3,334.469 -105.116,334.469ZM-105.116,334.469C-124.3,334.469 -139.875,307.906 -139.875,275.187C-139.875,242.469 -124.3,215.905 -105.116,215.905C-85.932,215.905 -70.357,242.469 -70.357,275.187C-70.357,307.906 -85.932,334.469 -105.116,334.469Z" style="fill:rgb(60,157,51);"/>
    </g>
    <g transform="matrix(3.99643,0,0,2.10085,-650.854,628.319)">
        <g transform="matrix(0.238846,0,0,0.454355,-208.82,-215.297)">
            <rect x="1735.42" y="207.504" width="888.341" height="519.348" style="fill:white;"/>
        </g>
        <g transform="matrix(0.691941,0,0,0.670164,256.633,-63.27)">
            <path d="M-69.3,-94.99C-68.112,-95.602 -49.007,-95.696 79.335,-95.696C178.029,-95.744 227.054,-95.602 227.945,-95.273C229.776,-94.614 232.499,-92.024 233.909,-89.671C235.295,-87.317 236.557,-83.786 237.349,-79.973L237.943,-77.148L238.017,88.329C238.092,272.166 238.215,257.619 236.433,263.268C234.676,268.823 232.078,272.731 228.935,274.473C227.722,275.132 221.214,275.226 160.829,275.226L94.06,275.226L93.887,276.921C93.59,279.981 93.961,293.539 94.481,298.058C95.446,306.532 97.104,313.453 99.381,318.772L100.667,321.691L105.691,322.021C112.571,322.444 122.421,323.574 129.424,324.704C145.189,327.199 155.533,330.683 159.914,334.826C161.745,336.568 161.844,337.085 161.844,344.571L161.844,351.114L161.052,352.574C160.408,353.657 158.33,355.21 157.538,355.728C151.4,359.73 135.587,363.543 116.803,365.614C95.644,367.874 63.719,367.874 42.56,365.614C23.776,363.543 7.963,359.73 1.825,355.728C1.033,355.21 -1.046,353.657 -1.689,352.574L-2.481,351.114L-2.481,344.571C-2.481,337.085 -2.382,336.568 -0.551,334.826C3.83,330.683 14.174,327.199 29.939,324.704C36.942,323.574 46.792,322.444 53.672,322.021L58.695,321.691L59.982,318.772C62.259,313.453 63.917,306.532 64.882,298.058C65.402,293.539 65.773,279.981 65.476,276.921L65.303,275.226L-1.466,275.226C-61.851,275.226 -68.359,275.132 -69.572,274.473C-72.715,272.731 -75.313,268.823 -77.071,263.268C-78.852,257.619 -78.729,272.166 -78.654,88.329L-78.58,-77.148L-77.986,-79.973C-76.378,-87.693 -73.334,-92.966 -69.3,-94.99ZM231.787,-63.829C231.787,-74.843 227.234,-83.786 221.626,-83.786L-62.263,-83.786C-67.871,-83.786 -72.424,-74.843 -72.424,-63.829L-72.424,241.872C-72.424,252.886 -67.871,261.829 -62.263,261.829L221.626,261.829C227.234,261.829 231.787,252.886 231.787,241.872L231.787,-63.829Z" style="fill:rgb(188,55,60);"/>
        </g>
    </g>
    <g transform="matrix(0.649935,0,0,0.649935,-269.559,385.655)">
        <text x="929.654px" y="131.076px" style="font-family:'Keifont';font-size:108.346px;fill:rgb(45,47,53);">離れたお友達と</text>
        <g transform="matrix(108.346,0,0,108.346,1814.88,239.422)">
        </g>
        <text x="795.862px" y="239.422px" style="font-family:'Keifont';font-size:108.346px;fill:rgb(45,47,53);">ローカルマルチプレイ</text>
    </g>
    <g transform="matrix(0.58312,0,0,0.58312,-126.395,741.685)">
        <text x="665.72px" y="131.076px" style="font-family:'Keifont';font-size:108.346px;fill:rgb(60,157,51);">参加者</text>
        <g transform="matrix(108.346,0,0,108.346,1945.02,131.076)">
        </g>
        <text x="990.757px" y="131.076px" style="font-family:'Keifont';font-size:108.346px;fill:rgb(45,47,53);">はゲーム購入不要！</text>
    </g>
    <g transform="matrix(0.536669,0,0,0.282117,293.599,682.388)">
        <path d="M-105.116,334.469C-124.3,334.469 -139.875,307.906 -139.875,275.187C-139.875,242.469 -124.3,215.905 -105.116,215.905C-85.932,215.905 -70.357,242.469 -70.357,275.187C-70.357,307.906 -85.932,334.469 -105.116,334.469ZM-105.116,334.469C-85.932,334.469 -70.357,354.292 -70.357,378.708L-70.357,515.119L-139.875,515.119L-139.875,378.708C-139.875,354.292 -124.3,334.469 -105.116,334.469Z" style="fill:rgb(60,157,51);"/>
    </g>
    <g id="Steam_icon_logo.svg" transform="matrix(2.3678,0,0,2.3678,595.103,659.816)">
        <g transform="matrix(1,0,0,1,-32.5,-32.5)">
            <g id="B" transform="matrix(1,0,0,1,0.5,0.5)">
                <g>
                    <path d="M1.305,41.202C5.259,54.386 17.488,64 31.959,64C49.632,64 63.959,49.673 63.959,32C63.959,14.327 49.632,0 31.959,0C15.001,0 1.124,13.193 0.028,29.874C2.102,33.351 2.907,35.502 1.303,41.202L1.305,41.202Z" style="fill:url(#_Linear1);fill-rule:nonzero;"/>
                    <path d="M30.31,23.985L30.313,24.143L22.483,35.518C21.215,35.46 19.943,35.683 18.735,36.18C18.209,36.394 17.707,36.662 17.237,36.98L0.042,29.893C0.042,29.893 -0.356,36.439 1.302,41.317L13.458,46.333C14.058,49.061 15.938,51.453 18.7,52.603C23.194,54.47 28.43,52.313 30.303,47.821C30.786,46.664 31.019,45.418 30.987,44.165L42.18,36.16L42.455,36.165C49.16,36.165 54.61,30.699 54.61,23.985C54.61,17.271 49.17,11.825 42.455,11.811C35.753,11.811 30.3,17.271 30.3,23.985L30.31,23.985ZM28.43,47.035C26.976,50.535 22.964,52.182 19.477,50.729C17.93,50.079 16.675,48.882 15.953,47.367L19.91,49.007C20.524,49.262 21.182,49.394 21.847,49.394C23.879,49.394 25.721,48.165 26.501,46.288C27.565,43.733 26.34,40.754 23.786,39.687L19.686,37.992C21.264,37.392 23.058,37.372 24.736,38.069C26.436,38.772 27.736,40.096 28.432,41.789C29.128,43.482 29.124,45.349 28.422,47.035M42.466,32.1C38.022,32.088 34.372,28.431 34.368,23.987C34.373,19.544 38.023,15.888 42.466,15.876C46.91,15.887 50.561,19.543 50.566,23.987C50.562,28.431 46.91,32.089 42.466,32.1M36.398,23.974C36.395,20.635 39.139,17.884 42.478,17.879C45.833,17.879 48.562,20.609 48.562,23.974C48.564,27.314 45.818,30.064 42.478,30.067C39.139,30.062 36.395,27.313 36.397,23.974L36.398,23.974Z" style="fill:white;fill-rule:nonzero;"/>
                </g>
            </g>
            <g id="B1" serif:id="B">
                <g>
                    <path d="M1.305,41.202C5.259,54.386 17.488,64 31.959,64C49.632,64 63.959,49.673 63.959,32C63.959,14.327 49.632,0 31.959,0C15.001,0 1.124,13.193 0.028,29.874C2.102,33.351 2.907,35.502 1.303,41.202L1.305,41.202Z" style="fill:url(#_Linear2);fill-rule:nonzero;"/>
                    <path d="M30.31,23.985L30.313,24.143L22.483,35.518C21.215,35.46 19.943,35.683 18.735,36.18C18.209,36.394 17.707,36.662 17.237,36.98L0.042,29.893C0.042,29.893 -0.356,36.439 1.302,41.317L13.458,46.333C14.058,49.061 15.938,51.453 18.7,52.603C23.194,54.47 28.43,52.313 30.303,47.821C30.786,46.664 31.019,45.418 30.987,44.165L42.18,36.16L42.455,36.165C49.16,36.165 54.61,30.699 54.61,23.985C54.61,17.271 49.17,11.825 42.455,11.811C35.753,11.811 30.3,17.271 30.3,23.985L30.31,23.985ZM28.43,47.035C26.976,50.535 22.964,52.182 19.477,50.729C17.93,50.079 16.675,48.882 15.953,47.367L19.91,49.007C20.524,49.262 21.182,49.394 21.847,49.394C23.879,49.394 25.721,48.165 26.501,46.288C27.565,43.733 26.34,40.754 23.786,39.687L19.686,37.992C21.264,37.392 23.058,37.372 24.736,38.069C26.436,38.772 27.736,40.096 28.432,41.789C29.128,43.482 29.124,45.349 28.422,47.035M42.466,32.1C38.022,32.088 34.372,28.431 34.368,23.987C34.373,19.544 38.023,15.888 42.466,15.876C46.91,15.887 50.561,19.543 50.566,23.987C50.562,28.431 46.91,32.089 42.466,32.1M36.398,23.974C36.395,20.635 39.139,17.884 42.478,17.879C45.833,17.879 48.562,20.609 48.562,23.974C48.564,27.314 45.818,30.064 42.478,30.067C39.139,30.062 36.395,27.313 36.397,23.974L36.398,23.974Z" style="fill:white;fill-rule:nonzero;"/>
                </g>
            </g>
        </g>
    </g>
    <g transform="matrix(4.93726,0,0,2.20092,-970.291,447.032)">
        <g transform="matrix(0.202542,0,0,0.454355,-208.73,-214.67)">
            <path d="M2407.5,1223.38C2412.49,1224.83 2415.36,1230.06 2413.91,1235.05C2412.46,1240.04 2407.23,1242.91 2402.24,1241.46C2397.24,1240.01 2394.38,1234.78 2395.83,1229.79C2397.28,1224.8 2402.5,1221.93 2407.5,1223.38Z" style="fill:white;"/>
        </g>
        <g transform="matrix(0.202542,0,0,0.454355,-208.73,-214.67)">
            <path d="M2381.17,1215.73C2386.16,1217.18 2389.04,1222.4 2387.59,1227.39C2386.14,1232.38 2380.91,1235.26 2375.92,1233.81C2370.93,1232.35 2368.06,1227.13 2369.51,1222.14C2370.96,1217.15 2376.18,1214.28 2381.17,1215.73Z" style="fill:white;"/>
        </g>
        <g transform="matrix(0.202542,0,0,0.454355,-208.73,-214.67)">
            <path d="M2400.91,1196.93C2405.9,1198.38 2408.78,1203.61 2407.33,1208.6C2405.88,1213.59 2400.65,1216.46 2395.66,1215.01C2390.67,1213.56 2387.79,1208.33 2389.24,1203.34C2390.69,1198.35 2395.92,1195.48 2400.91,1196.93Z" style="fill:white;"/>
        </g>
        <g transform="matrix(0.202542,0,0,0.454355,-208.73,-214.67)">
            <path d="M2329.14,1191.31C2331.79,1192.09 2333.32,1194.87 2332.55,1197.53L2331.46,1201.27C2330.69,1203.92 2327.91,1205.45 2325.25,1204.68L2316.22,1202.05L2313.6,1211.08C2312.83,1213.74 2310.05,1215.26 2307.39,1214.49L2303.65,1213.4C2300.99,1212.63 2299.46,1209.85 2300.24,1207.2L2302.86,1198.17L2293.83,1195.54C2291.18,1194.77 2289.65,1191.99 2290.42,1189.33L2291.51,1185.59C2292.28,1182.93 2295.06,1181.41 2297.72,1182.18L2306.74,1184.8L2309.37,1175.78C2310.14,1173.12 2312.92,1171.59 2315.58,1172.37L2319.32,1173.45C2321.98,1174.23 2323.51,1177.01 2322.74,1179.66L2320.11,1188.69L2329.14,1191.31Z" style="fill:white;"/>
        </g>
        <g transform="matrix(0.406402,0.265066,-0.118161,0.911669,253.276,278.807)">
            <path d="M90.439,74.078C87.552,76.17 83.043,76.015 80.267,73.375C77.321,70.574 75.495,67.184 72.731,63.797C71.42,62.193 70.177,61.287 67.211,62.265C61.384,64.19 55.089,64.65 49.044,64.516C44.123,64.477 38.604,64.259 32.776,62.337C29.811,61.358 28.568,62.263 27.258,63.869C24.493,67.255 22.668,70.643 19.721,73.446C16.947,76.084 12.437,76.241 9.549,74.147C5.434,71.166 4.499,68.626 5.55,64.645C7.201,58.388 10.411,45.848 12.004,39.575C15.172,27.103 18.028,25.071 29.221,24.523C31.808,24.397 35.187,24.38 37.34,27.883C38.292,29.433 39.906,29.185 41.419,29.182L58.569,29.182C60.083,29.185 61.694,29.363 62.649,27.813C64.8,24.31 68.178,24.325 70.766,24.452C81.959,25.001 84.829,27.028 87.984,39.505C90.097,47.869 92.04,55.714 94.438,64.574C95.515,68.55 94.555,71.096 90.439,74.078ZM36.159,41.921L31.661,41.921L31.661,37.423C31.661,36.099 30.587,35.025 29.263,35.025L27.398,35.025C26.073,35.025 25,36.099 25,37.423L25,41.921L20.502,41.921C19.178,41.921 18.104,42.994 18.104,44.319L18.104,46.184C18.104,47.508 19.178,48.582 20.502,48.582L25,48.582L25,53.081C25,54.405 26.074,55.477 27.398,55.477L29.263,55.477C30.587,55.477 31.661,54.405 31.661,53.081L31.661,48.582L36.159,48.582C37.483,48.582 38.556,47.508 38.556,46.184L38.556,44.32C38.556,42.995 37.483,41.921 36.159,41.921ZM69.893,34.913C67.406,34.913 65.387,36.931 65.387,39.419C65.387,41.906 67.406,43.923 69.893,43.923C72.381,43.923 74.4,41.906 74.4,39.419C74.399,36.931 72.381,34.913 69.893,34.913ZM63.333,46.187C60.847,46.187 58.829,48.204 58.829,50.691C58.829,53.179 60.847,55.197 63.333,55.197C65.821,55.197 67.839,53.179 67.839,50.691C67.839,48.204 65.821,46.187 63.333,46.187ZM76.453,46.187C73.963,46.187 71.949,48.204 71.949,50.691C71.949,53.179 73.963,55.197 76.453,55.197C78.941,55.197 80.957,53.179 80.957,50.691C80.957,48.204 78.941,46.187 76.453,46.187Z" style="fill:rgb(188,55,60);"/>
        </g>
    </g>
    <g transform="matrix(4.93726,0,0,2.20092,-970.291,447.032)">
        <g transform="matrix(0.202542,0,0,0.454355,-208.73,-214.67)">
            <path d="M2930.39,1344.92C2935.13,1342.8 2940.7,1344.92 2942.82,1349.66C2944.95,1354.41 2942.82,1359.98 2938.08,1362.1C2933.33,1364.23 2927.76,1362.1 2925.64,1357.35C2923.52,1352.61 2925.64,1347.04 2930.39,1344.92Z" style="fill:white;"/>
        </g>
        <g transform="matrix(0.202542,0,0,0.454355,-208.73,-214.67)">
            <path d="M2908.26,1329.01C2913,1326.89 2918.57,1329.02 2920.7,1333.76C2922.82,1338.5 2920.69,1344.07 2915.94,1346.2C2911.2,1348.32 2905.63,1346.19 2903.51,1341.45C2901.38,1336.7 2903.51,1331.13 2908.26,1329.01Z" style="fill:white;"/>
        </g>
        <g transform="matrix(0.202542,0,0,0.454355,-208.73,-214.67)">
            <path d="M2905.36,1356.11C2910.11,1353.99 2915.68,1356.12 2917.8,1360.86C2919.92,1365.61 2917.8,1371.18 2913.05,1373.3C2908.31,1375.42 2902.74,1373.29 2900.62,1368.55C2898.49,1363.8 2900.62,1358.23 2905.36,1356.11Z" style="fill:white;"/>
        </g>
        <g transform="matrix(0.202542,0,0,0.454355,-208.73,-214.67)">
            <path d="M2849.89,1371.16C2852.41,1370.03 2855.38,1371.17 2856.51,1373.69L2858.1,1377.25C2859.23,1379.78 2858.1,1382.74 2855.57,1383.87L2846.99,1387.71L2850.83,1396.29C2851.96,1398.81 2850.83,1401.78 2848.3,1402.9L2844.75,1404.5C2842.22,1405.63 2839.26,1404.5 2838.13,1401.97L2834.29,1393.39L2825.71,1397.23C2823.18,1398.36 2820.22,1397.23 2819.09,1394.7L2817.5,1391.14C2816.37,1388.62 2817.5,1385.65 2820.03,1384.52L2828.61,1380.68L2824.77,1372.11C2823.64,1369.58 2824.77,1366.62 2827.29,1365.49L2830.85,1363.89C2833.38,1362.76 2836.34,1363.9 2837.47,1366.42L2841.31,1375L2849.89,1371.16Z" style="fill:white;"/>
        </g>
        <g transform="matrix(0.386335,-0.387701,0.172829,0.866654,347.277,386.013)">
            <path d="M90.439,74.078C87.552,76.17 83.043,76.015 80.267,73.375C77.321,70.574 75.495,67.184 72.731,63.797C71.42,62.193 70.177,61.287 67.211,62.265C61.384,64.19 55.089,64.65 49.044,64.516C44.123,64.477 38.604,64.259 32.776,62.337C29.811,61.358 28.568,62.263 27.258,63.869C24.493,67.255 22.668,70.643 19.721,73.446C16.947,76.084 12.437,76.241 9.549,74.147C5.434,71.166 4.499,68.626 5.55,64.645C7.201,58.388 10.411,45.848 12.004,39.575C15.172,27.103 18.028,25.071 29.221,24.523C31.808,24.397 35.187,24.38 37.34,27.883C38.292,29.433 39.906,29.185 41.419,29.182L58.569,29.182C60.083,29.185 61.694,29.363 62.649,27.813C64.8,24.31 68.178,24.325 70.766,24.452C81.959,25.001 84.829,27.028 87.984,39.505C90.097,47.869 92.04,55.714 94.438,64.574C95.515,68.55 94.555,71.096 90.439,74.078ZM36.159,41.921L31.661,41.921L31.661,37.423C31.661,36.099 30.587,35.025 29.263,35.025L27.398,35.025C26.073,35.025 25,36.099 25,37.423L25,41.921L20.502,41.921C19.178,41.921 18.104,42.994 18.104,44.319L18.104,46.184C18.104,47.508 19.178,48.582 20.502,48.582L25,48.582L25,53.081C25,54.405 26.074,55.477 27.398,55.477L29.263,55.477C30.587,55.477 31.661,54.405 31.661,53.081L31.661,48.582L36.159,48.582C37.483,48.582 38.556,47.508 38.556,46.184L38.556,44.32C38.556,42.995 37.483,41.921 36.159,41.921ZM69.893,34.913C67.406,34.913 65.387,36.931 65.387,39.419C65.387,41.906 67.406,43.923 69.893,43.923C72.381,43.923 74.4,41.906 74.4,39.419C74.399,36.931 72.381,34.913 69.893,34.913ZM63.333,46.187C60.847,46.187 58.829,48.204 58.829,50.691C58.829,53.179 60.847,55.197 63.333,55.197C65.821,55.197 67.839,53.179 67.839,50.691C67.839,48.204 65.821,46.187 63.333,46.187ZM76.453,46.187C73.963,46.187 71.949,48.204 71.949,50.691C71.949,53.179 73.963,55.197 76.453,55.197C78.941,55.197 80.957,53.179 80.957,50.691C80.957,48.204 78.941,46.187 76.453,46.187Z" style="fill:rgb(60,157,51);"/>
        </g>
    </g>
    <g transform="matrix(1,0,0,1,-2000.84,-25.4396)">
        <path d="M2357.61,1188.31C2357.61,1188.31 2360.36,1139.34 2391.4,1093.13C2429.07,1037.05 2478.99,1075.24 2507.96,1060.74C2536.93,1046.23 2565.21,1003.47 2565.21,1003.47" style="fill:none;stroke:rgb(188,55,60);stroke-width:7.15px;"/>
    </g>
    <g transform="matrix(4.83108,1.01842,-0.453988,2.15359,-1026.06,177.854)">
        <g transform="matrix(0.151634,-4.06129e-05,1.80167e-05,0.338509,243.445,-186.998)">
            <path d="M179.44,41.943L179.44,316.807C179.44,338.627 161.811,356.342 140.096,356.342L41.744,356.342C20.029,356.342 2.4,338.627 2.4,316.807L2.4,41.943C2.4,20.123 20.029,2.408 41.744,2.408L140.096,2.408C161.811,2.408 179.44,20.123 179.44,41.943Z" style="fill:white;"/>
            <path d="M146.1,2.408C146.1,2.473 142.983,3.451 142.983,6.486L142.983,11.1C142.983,17.674 137.58,23.087 131.006,23.1C119.591,23.116 102.479,23.139 90.922,23.162C79.365,23.139 62.253,23.116 50.838,23.1C44.264,23.087 38.861,17.674 38.861,11.1L38.861,6.486C38.861,3.523 36.026,2.469 36.026,2.408" style="fill:rgb(60,157,51);fill-rule:nonzero;"/>
            <path d="M144.4,0.711C145.314,-0.102 144.142,0.699 143.838,0.894C143.01,1.416 142.29,2.091 141.716,2.883C140.348,4.783 140.58,7.11 140.58,9.326C140.75,11.393 140.409,13.47 139.587,15.374C138.747,17.042 137.446,18.435 135.839,19.388C134.159,20.323 132.253,20.779 130.331,20.706L123.406,20.715L107.894,20.738C98.221,20.753 88.548,20.756 78.876,20.746C73.648,20.737 68.42,20.729 63.191,20.722L55.777,20.711C53.661,20.832 51.54,20.799 49.429,20.611C45.137,19.936 41.797,16.455 41.3,12.139C41.056,9.608 41.772,6.723 40.875,4.292C40.471,3.185 39.784,2.204 38.882,1.446C38.534,1.151 38.165,0.882 37.778,0.64C37.478,0.455 36.968,0.016 37.721,0.711C35.453,-1.38 32.05,2.011 34.327,4.105C34.746,4.428 35.188,4.718 35.65,4.975C36.036,5.262 36.312,5.672 36.432,6.138C36.524,7.065 36.533,7.998 36.459,8.927C36.416,10.331 36.471,11.737 36.622,13.134C37.282,17.815 40.21,21.881 44.439,23.993C48.779,26.086 53.752,25.509 58.433,25.515C63.742,25.523 69.051,25.531 74.36,25.539C84.301,25.554 94.243,25.554 104.184,25.539L120.458,25.514L127.889,25.504C130.271,25.652 132.661,25.461 134.989,24.936C140.065,23.441 143.935,19.283 145.063,14.113C145.308,12.743 145.415,11.352 145.383,9.96C145.285,8.697 145.291,7.429 145.4,6.167C145.533,5.693 145.842,5.288 146.263,5.034C146.802,4.77 147.315,4.457 147.797,4.1C150.109,2.049 146.7,-1.336 144.4,0.711Z" style="fill:rgb(60,157,51);fill-rule:nonzero;"/>
            <path d="M149.982,353.942L32.924,353.942C22.03,353.942 12.171,348.381 7.37,338.407C3.728,330.841 4.8,321.291 4.8,313.086L4.8,33.133C4.8,25.298 7.346,17.96 13.064,12.418C18.116,7.558 24.854,4.83 31.864,4.808C32.918,4.8 33.973,4.808 35.027,4.808L143.012,4.808C148.707,4.808 154.246,4.547 159.712,6.608C170.256,10.578 177.012,21.039 177.042,32.163C177.048,34.524 177.042,36.885 177.042,39.246L177.042,308.9C177.042,315.057 177.142,321.225 177.042,327.382C176.622,341.975 164.586,353.791 149.988,353.941C146.901,353.967 146.893,358.767 149.988,358.741C165.932,358.578 179.476,346.601 181.588,330.797C181.844,328.11 181.93,325.409 181.847,322.711L181.847,53.228C181.847,46.149 181.888,39.068 181.847,31.989C181.769,18.663 173.449,6.694 160.986,1.976C155.248,-0.188 149.351,0.008 143.364,0.008L34.663,0.008C33.399,0.008 32.131,-0.018 30.868,0.024C23.092,0.295 15.674,3.381 10,8.705C3.464,14.991 -0.163,23.726 0,32.793L0,324.851C0,331.103 1.041,337.166 4.2,342.685C10.1,352.985 21.063,358.742 32.779,358.742L149.979,358.742C153.07,358.742 153.076,353.942 149.982,353.942Z" style="fill:rgb(60,157,51);fill-rule:nonzero;"/>
            <path d="M59.391,344.307L81.206,344.307L113.468,344.301L122.449,344.301C125.538,344.301 125.543,339.501 122.449,339.501L100.386,339.501L68.193,339.507L59.393,339.507C56.304,339.507 56.299,344.307 59.393,344.307L59.391,344.307Z" style="fill:rgb(60,157,51);fill-rule:nonzero;"/>
            <path d="M72.589,15.583C80.322,15.583 88.056,15.579 95.789,15.571C98.877,15.571 98.882,10.771 95.789,10.771C88.056,10.771 80.322,10.775 72.589,10.783C69.5,10.783 69.495,15.583 72.589,15.583Z" style="fill:white;fill-rule:nonzero;"/>
            <path d="M109.251,15.983C112.851,15.983 112.861,10.383 109.251,10.383C105.641,10.383 105.642,15.983 109.251,15.983Z" style="fill:white;fill-rule:nonzero;"/>
        </g>
        <g id="Steam_icon_logo.svg1" serif:id="Steam_icon_logo.svg" transform="matrix(0.270056,0,0,0.605807,257.318,-129.193)">
            <g transform="matrix(1,0,0,1,-32.5,-32.5)">
                <g id="B2" serif:id="B" transform="matrix(1,0,0,1,0.5,0.5)">
                    <g>
                        <path d="M1.305,41.202C5.259,54.386 17.488,64 31.959,64C49.632,64 63.959,49.673 63.959,32C63.959,14.327 49.632,0 31.959,0C15.001,0 1.124,13.193 0.028,29.874C2.102,33.351 2.907,35.502 1.303,41.202L1.305,41.202Z" style="fill:url(#_Linear3);fill-rule:nonzero;"/>
                        <path d="M30.31,23.985L30.313,24.143L22.483,35.518C21.215,35.46 19.943,35.683 18.735,36.18C18.209,36.394 17.707,36.662 17.237,36.98L0.042,29.893C0.042,29.893 -0.356,36.439 1.302,41.317L13.458,46.333C14.058,49.061 15.938,51.453 18.7,52.603C23.194,54.47 28.43,52.313 30.303,47.821C30.786,46.664 31.019,45.418 30.987,44.165L42.18,36.16L42.455,36.165C49.16,36.165 54.61,30.699 54.61,23.985C54.61,17.271 49.17,11.825 42.455,11.811C35.753,11.811 30.3,17.271 30.3,23.985L30.31,23.985ZM28.43,47.035C26.976,50.535 22.964,52.182 19.477,50.729C17.93,50.079 16.675,48.882 15.953,47.367L19.91,49.007C20.524,49.262 21.182,49.394 21.847,49.394C23.879,49.394 25.721,48.165 26.501,46.288C27.565,43.733 26.34,40.754 23.786,39.687L19.686,37.992C21.264,37.392 23.058,37.372 24.736,38.069C26.436,38.772 27.736,40.096 28.432,41.789C29.128,43.482 29.124,45.349 28.422,47.035M42.466,32.1C38.022,32.088 34.372,28.431 34.368,23.987C34.373,19.544 38.023,15.888 42.466,15.876C46.91,15.887 50.561,19.543 50.566,23.987C50.562,28.431 46.91,32.089 42.466,32.1M36.398,23.974C36.395,20.635 39.139,17.884 42.478,17.879C45.833,17.879 48.562,20.609 48.562,23.974C48.564,27.314 45.818,30.064 42.478,30.067C39.139,30.062 36.395,27.313 36.397,23.974L36.398,23.974Z" style="fill:white;fill-rule:nonzero;"/>
                    </g>
                </g>
                <g id="B3" serif:id="B">
                    <g>
                        <path d="M1.305,41.202C5.259,54.386 17.488,64 31.959,64C49.632,64 63.959,49.673 63.959,32C63.959,14.327 49.632,0 31.959,0C15.001,0 1.124,13.193 0.028,29.874C2.102,33.351 2.907,35.502 1.303,41.202L1.305,41.202Z" style="fill:url(#_Linear4);fill-rule:nonzero;"/>
                        <path d="M30.31,23.985L30.313,24.143L22.483,35.518C21.215,35.46 19.943,35.683 18.735,36.18C18.209,36.394 17.707,36.662 17.237,36.98L0.042,29.893C0.042,29.893 -0.356,36.439 1.302,41.317L13.458,46.333C14.058,49.061 15.938,51.453 18.7,52.603C23.194,54.47 28.43,52.313 30.303,47.821C30.786,46.664 31.019,45.418 30.987,44.165L42.18,36.16L42.455,36.165C49.16,36.165 54.61,30.699 54.61,23.985C54.61,17.271 49.17,11.825 42.455,11.811C35.753,11.811 30.3,17.271 30.3,23.985L30.31,23.985ZM28.43,47.035C26.976,50.535 22.964,52.182 19.477,50.729C17.93,50.079 16.675,48.882 15.953,47.367L19.91,49.007C20.524,49.262 21.182,49.394 21.847,49.394C23.879,49.394 25.721,48.165 26.501,46.288C27.565,43.733 26.34,40.754 23.786,39.687L19.686,37.992C21.264,37.392 23.058,37.372 24.736,38.069C26.436,38.772 27.736,40.096 28.432,41.789C29.128,43.482 29.124,45.349 28.422,47.035M42.466,32.1C38.022,32.088 34.372,28.431 34.368,23.987C34.373,19.544 38.023,15.888 42.466,15.876C46.91,15.887 50.561,19.543 50.566,23.987C50.562,28.431 46.91,32.089 42.466,32.1M36.398,23.974C36.395,20.635 39.139,17.884 42.478,17.879C45.833,17.879 48.562,20.609 48.562,23.974C48.564,27.314 45.818,30.064 42.478,30.067C39.139,30.062 36.395,27.313 36.397,23.974L36.398,23.974Z" style="fill:white;fill-rule:nonzero;"/>
                    </g>
                </g>
            </g>
        </g>
    </g>
    <g transform="matrix(-1,0,0,1,3732.38,-31.2074)">
        <path d="M2849.94,1365.33C2849.94,1365.33 2893.9,1342.23 2897.03,1312.6C2900.17,1282.97 2878.07,1231.74 2878.07,1231.74" style="fill:none;stroke:rgb(60,157,51);stroke-width:7.15px;"/>
    </g>
    <g transform="matrix(4.93726,0,0,2.20092,-970.291,447.032)">
        <g transform="matrix(0.231875,0,0,0.520158,-277.919,-292.515)">
            <g>
                <g transform="matrix(1,0,0,1,2655.24,1027.38)">
                    <rect x="66.75" y="73" width="167" height="112" style="fill:white;stroke:rgb(60,157,51);stroke-width:8px;stroke-linecap:butt;stroke-miterlimit:10;"/>
                </g>
                <g transform="matrix(1,0,0,1,2655.24,1027.38)">
                    <path d="M256.5,227L43.5,227C51.167,213 58.833,199 66.5,185L233.5,185C241.167,199 248.833,213 256.5,227Z" style="fill:white;fill-rule:nonzero;stroke:rgb(60,157,51);stroke-width:8px;stroke-linecap:butt;stroke-miterlimit:10;"/>
                </g>
            </g>
        </g>
        <g id="Steam_icon_logo.svg2" serif:id="Steam_icon_logo.svg" transform="matrix(0.199256,0,0,0.446985,372.604,309.87)">
            <g transform="matrix(1,0,0,1,-32.5,-32.5)">
                <g id="B4" serif:id="B" transform="matrix(1,0,0,1,0.5,0.5)">
                    <g>
                        <path d="M1.305,41.202C5.259,54.386 17.488,64 31.959,64C49.632,64 63.959,49.673 63.959,32C63.959,14.327 49.632,0 31.959,0C15.001,0 1.124,13.193 0.028,29.874C2.102,33.351 2.907,35.502 1.303,41.202L1.305,41.202Z" style="fill:url(#_Linear5);fill-rule:nonzero;"/>
                        <path d="M30.31,23.985L30.313,24.143L22.483,35.518C21.215,35.46 19.943,35.683 18.735,36.18C18.209,36.394 17.707,36.662 17.237,36.98L0.042,29.893C0.042,29.893 -0.356,36.439 1.302,41.317L13.458,46.333C14.058,49.061 15.938,51.453 18.7,52.603C23.194,54.47 28.43,52.313 30.303,47.821C30.786,46.664 31.019,45.418 30.987,44.165L42.18,36.16L42.455,36.165C49.16,36.165 54.61,30.699 54.61,23.985C54.61,17.271 49.17,11.825 42.455,11.811C35.753,11.811 30.3,17.271 30.3,23.985L30.31,23.985ZM28.43,47.035C26.976,50.535 22.964,52.182 19.477,50.729C17.93,50.079 16.675,48.882 15.953,47.367L19.91,49.007C20.524,49.262 21.182,49.394 21.847,49.394C23.879,49.394 25.721,48.165 26.501,46.288C27.565,43.733 26.34,40.754 23.786,39.687L19.686,37.992C21.264,37.392 23.058,37.372 24.736,38.069C26.436,38.772 27.736,40.096 28.432,41.789C29.128,43.482 29.124,45.349 28.422,47.035M42.466,32.1C38.022,32.088 34.372,28.431 34.368,23.987C34.373,19.544 38.023,15.888 42.466,15.876C46.91,15.887 50.561,19.543 50.566,23.987C50.562,28.431 46.91,32.089 42.466,32.1M36.398,23.974C36.395,20.635 39.139,17.884 42.478,17.879C45.833,17.879 48.562,20.609 48.562,23.974C48.564,27.314 45.818,30.064 42.478,30.067C39.139,30.062 36.395,27.313 36.397,23.974L36.398,23.974Z" style="fill:white;fill-rule:nonzero;"/>
                    </g>
                </g>
                <g id="B5" serif:id="B">
                    <g>
                        <path d="M1.305,41.202C5.259,54.386 17.488,64 31.959,64C49.632,64 63.959,49.673 63.959,32C63.959,14.327 49.632,0 31.959,0C15.001,0 1.124,13.193 0.028,29.874C2.102,33.351 2.907,35.502 1.303,41.202L1.305,41.202Z" style="fill:url(#_Linear6);fill-rule:nonzero;"/>
                        <path d="M30.31,23.985L30.313,24.143L22.483,35.518C21.215,35.46 19.943,35.683 18.735,36.18C18.209,36.394 17.707,36.662 17.237,36.98L0.042,29.893C0.042,29.893 -0.356,36.439 1.302,41.317L13.458,46.333C14.058,49.061 15.938,51.453 18.7,52.603C23.194,54.47 28.43,52.313 30.303,47.821C30.786,46.664 31.019,45.418 30.987,44.165L42.18,36.16L42.455,36.165C49.16,36.165 54.61,30.699 54.61,23.985C54.61,17.271 49.17,11.825 42.455,11.811C35.753,11.811 30.3,17.271 30.3,23.985L30.31,23.985ZM28.43,47.035C26.976,50.535 22.964,52.182 19.477,50.729C17.93,50.079 16.675,48.882 15.953,47.367L19.91,49.007C20.524,49.262 21.182,49.394 21.847,49.394C23.879,49.394 25.721,48.165 26.501,46.288C27.565,43.733 26.34,40.754 23.786,39.687L19.686,37.992C21.264,37.392 23.058,37.372 24.736,38.069C26.436,38.772 27.736,40.096 28.432,41.789C29.128,43.482 29.124,45.349 28.422,47.035M42.466,32.1C38.022,32.088 34.372,28.431 34.368,23.987C34.373,19.544 38.023,15.888 42.466,15.876C46.91,15.887 50.561,19.543 50.566,23.987C50.562,28.431 46.91,32.089 42.466,32.1M36.398,23.974C36.395,20.635 39.139,17.884 42.478,17.879C45.833,17.879 48.562,20.609 48.562,23.974C48.564,27.314 45.818,30.064 42.478,30.067C39.139,30.062 36.395,27.313 36.397,23.974L36.398,23.974Z" style="fill:white;fill-rule:nonzero;"/>
                    </g>
                </g>
            </g>
        </g>
    </g>
    <g transform="matrix(4.93726,0,0,2.20092,-970.291,447.032)">
        <g transform="matrix(0.202542,0,0,0.454355,-208.73,-214.67)">
            <rect x="2892.15" y="45.817" width="69.749" height="174.705" style="fill:white;"/>
        </g>
        <g transform="matrix(0.202542,0,0,0.454355,-208.73,-214.67)">
            <rect x="2718.91" y="71.531" width="150.427" height="110.249" style="fill:white;"/>
        </g>
        <g transform="matrix(0.0644288,0,0,0.144531,340.579,-211.714)">
            <path d="M751.583,269.766L599.733,269.766L599.733,246.313L751.583,246.313L751.583,269.766ZM751.583,285.06L599.733,285.06L599.733,308.559L751.583,308.559L751.583,285.06ZM751.49,178.674L599.872,178.674L599.872,230.345L751.49,230.345L751.49,178.674ZM800,123.122L800,676.948C799.977,685.246 793.213,692.01 784.892,692.01L566.471,692.01C558.127,692.01 551.386,685.246 551.386,676.925L551.386,123.122C551.386,114.8 558.127,108.013 566.471,108.013L784.892,108.013C793.236,108.013 800,114.8 800,123.122ZM769.806,138.16L581.533,138.16L581.533,661.84L769.806,661.84L769.806,138.16ZM751.583,323.831L599.733,323.831L599.733,347.26L751.583,347.26L751.583,323.831ZM726.875,498.576C726.875,525.585 705.05,547.365 678.134,547.365C651.171,547.365 629.345,525.562 629.345,498.576C629.345,471.66 651.194,449.811 678.134,449.811C705.05,449.811 726.875,471.683 726.875,498.576ZM709.28,498.576C709.28,481.399 695.334,467.407 678.11,467.407C660.864,467.407 646.917,481.376 646.917,498.576C646.917,515.777 660.864,529.723 678.11,529.723C695.334,529.723 709.28,515.777 709.28,498.576ZM509.896,214.26L509.896,528.165C509.896,547.086 494.671,562.403 475.937,562.403L306.351,562.403C306.351,562.403 296.728,630.926 357.766,630.926L357.766,665.21L152.153,665.21L152.153,630.972C210.936,630.972 203.568,562.45 203.568,562.45L34.052,562.45C15.248,562.45 0,547.132 0,528.212L0,214.26C0,195.34 15.248,180.092 34.052,180.092L475.914,180.092C494.671,180.092 509.896,195.34 509.896,214.26ZM286.641,520.518C286.641,504.294 273.485,491.162 257.261,491.162C241.013,491.162 227.834,504.294 227.834,520.518C227.834,536.742 240.99,549.922 257.261,549.922C273.508,549.922 286.641,536.742 286.641,520.518ZM473.496,216.422L36.446,216.422L36.446,481.097L473.496,481.097L473.496,216.422ZM257.563,502.133C247.475,502.133 239.317,510.314 239.317,520.379C239.317,530.443 247.498,538.625 257.563,538.625C267.627,538.625 275.809,530.443 275.809,520.379C275.809,510.314 267.651,502.133 257.563,502.133Z" style="fill:rgb(60,157,51);fill-rule:nonzero;"/>
        </g>
    </g>
    <g transform="matrix(4.93726,0,0,2.20092,-970.291,447.032)">
        <g transform="matrix(0.202542,0,0,0.454355,-208.73,-214.67)">
            <path d="M2988.95,278.587C2989.45,278.144 2989.49,277.387 2989.05,276.897L2987.91,275.633C2987.88,275.602 2987.87,275.562 2987.87,275.525C2987.87,275.486 2987.89,275.448 2987.92,275.422L2990.9,272.74C2990.93,272.713 2990.97,272.7 2991.01,272.703C2991.05,272.705 2991.09,272.721 2991.11,272.749L2992.25,274.013C2992.69,274.504 2993.45,274.544 2993.94,274.103L3001.87,266.969C3002.8,266.131 3003.99,265.752 3005.16,265.814C3006.32,265.876 3007.47,266.378 3008.3,267.31L3030.57,292.064C3031.41,292.995 3031.79,294.188 3031.73,295.352C3031.67,296.519 3031.16,297.661 3030.23,298.5L2967.53,354.911C2966.6,355.748 2965.4,356.128 2964.24,356.067L2964.16,356.067C2963.02,355.987 2961.91,355.484 2961.09,354.571L2938.82,329.817C2937.98,328.885 2937.6,327.697 2937.67,326.529C2937.73,325.362 2938.23,324.218 2939.16,323.381L2988.95,278.587ZM3005.62,301.887C3004.98,302.458 3004.93,303.436 3005.5,304.07L3009.02,307.984C3009.59,308.618 3010.57,308.669 3011.2,308.099L3015.85,303.923C3016.48,303.353 3016.53,302.374 3015.96,301.74L3012.44,297.827C3011.87,297.193 3010.89,297.141 3010.26,297.712L3005.62,301.887ZM2996.42,310.156C2995.79,310.726 2995.74,311.705 2996.31,312.339L2999.83,316.252C3000.4,316.886 3001.38,316.938 3002.01,316.368L3006.65,312.192C3007.29,311.623 3007.34,310.645 3006.77,310.011L3003.25,306.097C3002.68,305.463 3001.7,305.412 3001.07,305.98L2996.42,310.156ZM2944.35,326.216C2943.71,326.786 2943.66,327.763 2944.23,328.397L2947.75,332.312C2948.32,332.946 2949.3,332.996 2949.93,332.425L2954.57,328.25C2955.21,327.679 2955.26,326.705 2954.69,326.071L2951.17,322.155C2950.6,321.521 2949.62,321.47 2948.99,322.04L2944.35,326.216ZM2998,293.425C2997.37,293.995 2997.32,294.974 2997.89,295.608L3001.41,299.519C3001.98,300.153 3002.95,300.205 3003.59,299.634L3008.23,295.458C3008.86,294.888 3008.92,293.91 3008.35,293.276L3004.83,289.364C3004.26,288.73 3003.28,288.678 3002.64,289.249L2998,293.425ZM2961.23,326.502C2960.6,327.073 2960.55,328.051 2961.12,328.685L2964.64,332.597C2965.21,333.231 2966.18,333.282 2966.82,332.712L2971.46,328.536C2972.1,327.966 2972.15,326.987 2971.58,326.353L2968.06,322.442C2967.49,321.808 2966.51,321.756 2965.88,322.327L2961.23,326.502ZM2988.81,301.693C2988.18,302.264 2988.12,303.242 2988.7,303.876L2992.21,307.787C2992.78,308.421 2993.76,308.473 2994.4,307.903L2999.04,303.727C2999.67,303.158 2999.72,302.18 2999.15,301.546L2995.63,297.635C2995.06,297.001 2994.09,296.949 2993.45,297.517L2988.81,301.693ZM2952.04,334.771C2951.41,335.341 2951.36,336.32 2951.93,336.954L2955.45,340.865C2956.02,341.499 2956.99,341.551 2957.63,340.98L2962.27,336.805C2962.9,336.234 2962.95,335.258 2962.38,334.624L2958.87,330.712C2958.29,330.078 2957.32,330.025 2956.68,330.595L2952.04,334.771ZM2981.12,293.138C2980.48,293.709 2980.43,294.685 2981,295.319L2984.52,299.234C2985.09,299.868 2986.07,299.918 2986.7,299.348L2991.34,295.172C2991.97,294.603 2992.03,293.627 2991.46,292.993L2987.94,289.077C2987.37,288.443 2986.39,288.394 2985.76,288.962L2981.12,293.138ZM2970.43,318.232C2969.79,318.802 2969.74,319.781 2970.31,320.415L2973.83,324.326C2974.4,324.96 2975.38,325.012 2976.01,324.442L2980.66,320.266C2981.29,319.695 2981.34,318.719 2980.77,318.085L2977.25,314.173C2976.68,313.539 2975.7,313.486 2975.07,314.056L2970.43,318.232ZM2959.66,343.234C2959.02,343.804 2958.97,344.782 2959.54,345.417L2963.06,349.33C2963.63,349.964 2964.61,350.016 2965.24,349.445L2969.89,345.269C2970.52,344.699 2970.57,343.722 2970,343.088L2966.48,339.175C2965.91,338.541 2964.93,338.487 2964.3,339.058L2959.66,343.234ZM2999.5,276.601C2998.87,277.17 2998.81,278.146 2999.38,278.78L3002.9,282.696C3003.47,283.33 3004.45,283.379 3005.08,282.811L3009.72,278.635C3010.36,278.063 3010.41,277.088 3009.84,276.454L3006.32,272.539C3005.75,271.905 3004.78,271.853 3004.14,272.425L2999.5,276.601ZM2968.85,334.965C2968.22,335.53 2968.17,336.503 2968.74,337.137L2972.26,341.05C2972.83,341.684 2973.81,341.742 2974.43,341.177L2997.46,320.462C2998.09,319.899 2998.13,318.924 2997.56,318.29L2994.04,314.377C2993.47,313.743 2992.5,313.687 2991.87,314.25L2968.85,334.965ZM2971.92,301.408C2971.29,301.979 2971.23,302.955 2971.8,303.589L2975.33,307.505C2975.9,308.139 2976.87,308.188 2977.51,307.618L2982.15,303.442C2982.78,302.872 2982.84,301.895 2982.27,301.261L2978.74,297.346C2978.17,296.712 2977.2,296.662 2976.56,297.233L2971.92,301.408ZM2979.62,309.964C2978.98,310.534 2978.93,311.512 2979.5,312.146L2983.02,316.058C2983.59,316.692 2984.57,316.744 2985.2,316.173L2989.85,311.997C2990.48,311.427 2990.53,310.448 2989.96,309.814L2986.44,305.903C2985.87,305.269 2984.89,305.217 2984.26,305.788L2979.62,309.964ZM3007.1,285.052C3006.47,285.622 3006.42,286.604 3006.99,287.247L3018.13,299.625C3018.71,300.265 3019.69,300.323 3020.33,299.753L3024.97,295.577C3025.6,295.005 3025.65,294.02 3025.07,293.38L3013.94,281.002C3013.36,280.359 3012.38,280.303 3011.74,280.876L3007.1,285.052ZM2990.31,284.87C2989.67,285.44 2989.62,286.416 2990.19,287.051L2993.71,290.966C2994.28,291.6 2995.26,291.65 2995.89,291.079L3000.53,286.903C3001.17,286.333 3001.22,285.357 3000.65,284.722L2997.13,280.807C2996.56,280.173 2995.58,280.123 2994.95,280.694L2990.31,284.87ZM2962.73,309.677C2962.1,310.247 2962.04,311.224 2962.61,311.858L2966.14,315.773C2966.71,316.407 2967.68,316.457 2968.32,315.887L2972.96,311.711C2973.59,311.14 2973.64,310.166 2973.07,309.532L2969.55,305.616C2968.98,304.982 2968.01,304.931 2967.37,305.501L2962.73,309.677ZM2953.54,317.947C2952.9,318.518 2952.85,319.494 2953.42,320.128L2956.94,324.044C2957.51,324.678 2958.49,324.727 2959.12,324.157L2963.76,319.981C2964.4,319.411 2964.45,318.434 2963.88,317.8L2960.36,313.885C2959.79,313.251 2958.81,313.201 2958.18,313.772L2953.54,317.947Z" style="fill:white;"/>
        </g>
        <g transform="matrix(0.202542,0,0,0.454355,-208.73,-214.67)">
            <path d="M3049.84,249.076L3058.01,258.163C3060.09,260.475 3061.05,263.421 3060.92,266.31L3060.91,266.394C3060.76,269.314 3059.49,272.177 3057.16,274.274L3054.44,276.72C3052.11,278.817 3049.13,279.771 3046.21,279.617C3043.29,279.463 3040.43,278.199 3038.33,275.868L3030.16,266.782L3049.84,249.076Z" style="fill:white;"/>
        </g>
        <g transform="matrix(0.202542,0,0,0.454355,-208.73,-214.67)">
            <path d="M3039.29,255.349L3036.83,252.616C3037.36,251.499 3037.21,250.111 3036.34,249.142L3033.91,246.446C3033.04,245.475 3031.68,245.177 3030.51,245.59L3027.92,242.715L3028.39,242.292C3030.72,240.193 3033.7,239.239 3036.63,239.393C3039.54,239.547 3042.4,240.81 3044.5,243.146L3048.24,247.297L3039.29,255.349Z" style="fill:white;"/>
        </g>
        <g transform="matrix(0.202542,0,0,0.454355,-208.73,-214.67)">
            <path d="M3028.56,265.003L3024.82,260.851C3022.72,258.52 3021.77,255.54 3021.92,252.616C3022.08,249.7 3023.34,246.837 3025.67,244.738L3026.14,244.315L3028.73,247.188C3028.19,248.307 3028.35,249.691 3029.22,250.664L3031.65,253.361C3032.52,254.333 3033.88,254.63 3035.05,254.217L3037.51,256.95L3028.56,265.003Z" style="fill:white;"/>
        </g>
        <g transform="matrix(0.041563,-0.0838767,0.0373904,0.0932369,382.932,-72.0976)">
            <path d="M25.18,60.72L263.5,60.72L263.5,58.9C263.5,56.37 264.54,54.07 266.2,52.4C267.917,50.659 270.264,49.678 272.71,49.68L275.82,49.68C275.98,44.87 284.66,45.38 284.5,49.68L287.24,49.68C289.78,49.68 292.09,50.72 293.76,52.39C295.488,54.115 296.46,56.459 296.46,58.9L296.46,60.72L330.76,60.72C337.69,60.72 343.99,63.55 348.55,68.11C353.11,72.67 355.94,78.97 355.94,85.9L355.94,206.53C355.94,213.45 353.11,219.74 348.55,224.31C343.99,228.88 337.69,231.72 330.76,231.72L25.18,231.72C18.25,231.72 11.95,228.88 7.39,224.32L7.15,224.06C2.74,219.52 0,213.33 0,206.53L0,85.9C0,78.97 2.83,72.67 7.39,68.11C11.95,63.55 18.25,60.72 25.18,60.72ZM450.5,58.52L450.5,52.34C450.5,48.52 459.18,47.32 459.18,52.34L459.18,58.52L461.99,58.52C475.72,58.52 488.21,64.14 497.28,73.2L497.31,73.22C506.37,82.29 512,94.79 512,108.53L512,181.71C512,195.32 506.47,207.72 497.55,216.77L497.31,217.03C488.25,226.09 475.75,231.72 461.99,231.72L448.74,231.72C434.99,231.72 422.48,226.09 413.42,217.03C404.36,207.97 398.73,195.46 398.73,181.71L398.73,108.53C398.73,94.77 404.36,82.27 413.42,73.21C422.5,64.15 435,58.52 448.74,58.52L450.5,58.52ZM407.41,128.76L451.03,128.76L451.03,115.44C446.89,113.73 443.94,109.63 443.94,104.89L443.94,91.75C443.94,87.01 446.88,82.91 451.03,81.19L451.03,67.19L448.74,67.19C437.37,67.19 427.03,71.84 419.55,79.32C412.06,86.83 407.41,97.17 407.41,108.53L407.41,128.76ZM459.7,128.76L503.32,128.76L503.32,108.53C503.32,97.15 498.68,86.82 491.2,79.34C483.7,71.84 473.36,67.19 461.99,67.19L459.7,67.19L459.7,81.2C463.85,82.92 466.79,87.02 466.79,91.75L466.79,104.89C466.79,109.61 463.84,113.72 459.7,115.44L459.7,128.76ZM503.32,137.43L407.41,137.43L407.41,181.71C407.41,193.07 412.06,203.41 419.55,210.9C427.04,218.39 437.38,223.04 448.74,223.04L461.99,223.04C473.35,223.04 483.69,218.39 491.18,210.9L491.4,210.69C498.76,203.23 503.32,192.98 503.32,181.71L503.32,137.43ZM32.28,89.59L54.9,89.59C57.99,89.59 60.49,92.09 60.49,95.18L60.49,114.26C60.49,117.35 57.99,119.85 54.9,119.85L32.28,119.85C29.19,119.85 26.68,117.35 26.68,114.26L26.68,95.18C26.68,92.09 29.19,89.59 32.28,89.59ZM256.25,172.52L278.87,172.52C281.96,172.52 284.47,175.03 284.47,178.12L284.47,197.19C284.47,200.28 281.96,202.79 278.87,202.79L256.25,202.79C253.16,202.79 250.65,200.28 250.65,197.19L250.65,178.12C250.65,175.03 253.16,172.52 256.25,172.52ZM211.46,172.52L234.08,172.52C237.16,172.52 239.67,175.03 239.67,178.12L239.67,197.19C239.67,200.28 237.16,202.79 234.08,202.79L211.46,202.79C208.37,202.79 205.86,200.28 205.86,197.19L205.86,178.12C205.86,175.03 208.37,172.52 211.46,172.52ZM77.07,172.52L189.28,172.52C192.33,172.52 194.82,175.03 194.82,178.12L194.82,197.19C194.82,200.28 192.33,202.79 189.28,202.79L77.07,202.79C74.01,202.79 71.53,200.28 71.53,197.19L71.53,178.12C71.53,175.03 74.01,172.52 77.07,172.52ZM32.28,172.52L54.9,172.52C57.99,172.52 60.49,175.03 60.49,178.12L60.49,197.19C60.49,200.28 57.99,202.79 54.9,202.79L32.28,202.79C29.19,202.79 26.68,200.28 26.68,197.19L26.68,178.12C26.68,175.03 29.19,172.52 32.28,172.52ZM256.25,131.28L278.87,131.28C281.96,131.28 284.47,133.79 284.47,136.88L284.47,155.94C284.47,159.03 281.96,161.54 278.87,161.54L256.25,161.54C253.16,161.54 250.65,159.03 250.65,155.94L250.65,136.88C250.65,133.79 253.16,131.28 256.25,131.28ZM211.46,131.28L234.08,131.28C237.16,131.28 239.67,133.79 239.67,136.88L239.67,155.94C239.67,159.03 237.16,161.54 234.08,161.54L211.46,161.54C208.37,161.54 205.86,159.03 205.86,155.94L205.86,136.88C205.86,133.79 208.37,131.28 211.46,131.28ZM166.66,131.28L189.28,131.28C192.37,131.28 194.88,133.79 194.88,136.88L194.88,155.94C194.88,159.03 192.37,161.54 189.28,161.54L166.66,161.54C163.57,161.54 161.06,159.03 161.06,155.94L161.06,136.88C161.06,133.79 163.57,131.28 166.66,131.28ZM121.87,131.28L144.49,131.28C147.58,131.28 150.08,133.79 150.08,136.88L150.08,155.94C150.08,159.03 147.58,161.54 144.49,161.54L121.87,161.54C118.78,161.54 116.27,159.03 116.27,155.94L116.27,136.88C116.27,133.79 118.78,131.28 121.87,131.28ZM77.07,131.28L99.69,131.28C102.78,131.28 105.29,133.79 105.29,136.88L105.29,155.94C105.29,159.03 102.78,161.54 99.69,161.54L77.07,161.54C73.98,161.54 71.47,159.03 71.47,155.94L71.47,136.88C71.47,133.79 73.98,131.28 77.07,131.28ZM32.28,131.28L54.9,131.28C57.99,131.28 60.49,133.79 60.49,136.88L60.49,155.94C60.49,159.03 57.99,161.54 54.9,161.54L32.28,161.54C29.19,161.54 26.68,159.03 26.68,155.94L26.68,136.88C26.68,133.79 29.19,131.28 32.28,131.28ZM301.04,130.77L323.66,130.77C326.76,130.77 329.27,133.3 329.27,136.43L329.27,196.75C329.27,199.87 326.76,202.41 323.66,202.41L301.04,202.41C297.95,202.41 295.44,199.87 295.44,196.75L295.44,136.43C295.44,133.3 297.95,130.77 301.04,130.77ZM301.04,89.59L323.66,89.59C326.76,89.59 329.26,92.09 329.26,95.18L329.26,114.26C329.26,117.35 326.76,119.85 323.66,119.85L301.04,119.85C297.96,119.85 295.45,117.35 295.45,114.26L295.45,95.18C295.45,92.09 297.96,89.59 301.04,89.59ZM256.25,89.59L278.87,89.59C281.96,89.59 284.47,92.09 284.47,95.18L284.47,114.26C284.47,117.35 281.96,119.85 278.87,119.85L256.25,119.85C253.16,119.85 250.65,117.35 250.65,114.26L250.65,95.18C250.65,92.09 253.16,89.59 256.25,89.59ZM211.46,89.59L234.08,89.59C237.16,89.59 239.67,92.09 239.67,95.18L239.67,114.26C239.67,117.35 237.16,119.85 234.08,119.85L211.46,119.85C208.37,119.85 205.86,117.35 205.86,114.26L205.86,95.18C205.86,92.09 208.37,89.59 211.46,89.59ZM166.66,89.59L189.28,89.59C192.37,89.59 194.88,92.09 194.88,95.18L194.88,114.26C194.88,117.35 192.37,119.85 189.28,119.85L166.66,119.85C163.57,119.85 161.06,117.35 161.06,114.26L161.06,95.18C161.06,92.09 163.57,89.59 166.66,89.59ZM121.87,89.59L144.49,89.59C147.58,89.59 150.08,92.09 150.08,95.18L150.08,114.26C150.08,117.35 147.58,119.85 144.49,119.85L121.87,119.85C118.78,119.85 116.27,117.35 116.27,114.26L116.27,95.18C116.27,92.09 118.78,89.59 121.87,89.59ZM77.07,89.59L99.69,89.59C102.78,89.59 105.29,92.09 105.29,95.18L105.29,114.26C105.29,117.35 102.78,119.85 99.69,119.85L77.07,119.85C73.98,119.85 71.47,117.35 71.47,114.26L71.47,95.18C71.47,92.09 73.98,89.59 77.07,89.59ZM267.83,69.39L25.18,69.39C20.65,69.39 16.52,71.25 13.53,74.25C10.53,77.24 8.67,81.36 8.67,85.9L8.67,206.53C8.67,210.98 10.45,215.03 13.32,218L13.53,218.19C16.52,221.18 20.65,223.04 25.18,223.04L330.76,223.04C335.3,223.04 339.42,221.18 342.42,218.19C345.41,215.21 347.27,211.07 347.27,206.53L347.27,85.9C347.27,81.36 345.41,77.24 342.42,74.25C339.42,71.25 335.3,69.39 330.76,69.39L292.12,69.39C289.73,69.39 287.79,67.45 287.79,65.06L287.79,58.9C287.79,58.76 287.72,58.62 287.62,58.52C287.521,58.416 287.383,58.358 287.24,58.36L272.71,58.36C272.57,58.36 272.43,58.42 272.33,58.52C272.23,58.61 272.17,58.75 272.17,58.9L272.17,65.06C272.17,67.45 270.23,69.39 267.83,69.39Z" style="fill:rgb(60,157,51);fill-rule:nonzero;"/>
        </g>
        <g transform="matrix(0.202542,0,0,0.454355,-208.863,-214.67)">
            <path d="M2988.57,272.483C2988.57,272.483 2979.73,255.608 2960.05,266.858C2940.36,278.108 2920.27,251.188 2921.88,232.706C2923.48,214.224 2921.88,222.26 2921.88,222.26" style="fill:none;stroke:rgb(60,157,51);stroke-width:2.67px;"/>
        </g>
        <g transform="matrix(0.202542,0,0,0.454355,-208.73,-214.67)">
            <path d="M3025.55,242.25C3025.55,242.25 3012.78,225.267 2996.19,229.743C2979.6,234.219 2957.36,220.522 2957.36,220.522" style="fill:none;stroke:rgb(60,157,51);stroke-width:2.67px;"/>
        </g>
    </g>
    <g id="Steam_icon_logo.svg3" serif:id="Steam_icon_logo.svg" transform="matrix(0.981328,0,0,0.981328,793.276,93.0963)">
        <g transform="matrix(1,0,0,1,-32.5,-32.5)">
            <g id="B6" serif:id="B" transform="matrix(1,0,0,1,0.5,0.5)">
                <g>
                    <path d="M1.305,41.202C5.259,54.386 17.488,64 31.959,64C49.632,64 63.959,49.673 63.959,32C63.959,14.327 49.632,0 31.959,0C15.001,0 1.124,13.193 0.028,29.874C2.102,33.351 2.907,35.502 1.303,41.202L1.305,41.202Z" style="fill:url(#_Linear7);fill-rule:nonzero;"/>
                    <path d="M30.31,23.985L30.313,24.143L22.483,35.518C21.215,35.46 19.943,35.683 18.735,36.18C18.209,36.394 17.707,36.662 17.237,36.98L0.042,29.893C0.042,29.893 -0.356,36.439 1.302,41.317L13.458,46.333C14.058,49.061 15.938,51.453 18.7,52.603C23.194,54.47 28.43,52.313 30.303,47.821C30.786,46.664 31.019,45.418 30.987,44.165L42.18,36.16L42.455,36.165C49.16,36.165 54.61,30.699 54.61,23.985C54.61,17.271 49.17,11.825 42.455,11.811C35.753,11.811 30.3,17.271 30.3,23.985L30.31,23.985ZM28.43,47.035C26.976,50.535 22.964,52.182 19.477,50.729C17.93,50.079 16.675,48.882 15.953,47.367L19.91,49.007C20.524,49.262 21.182,49.394 21.847,49.394C23.879,49.394 25.721,48.165 26.501,46.288C27.565,43.733 26.34,40.754 23.786,39.687L19.686,37.992C21.264,37.392 23.058,37.372 24.736,38.069C26.436,38.772 27.736,40.096 28.432,41.789C29.128,43.482 29.124,45.349 28.422,47.035M42.466,32.1C38.022,32.088 34.372,28.431 34.368,23.987C34.373,19.544 38.023,15.888 42.466,15.876C46.91,15.887 50.561,19.543 50.566,23.987C50.562,28.431 46.91,32.089 42.466,32.1M36.398,23.974C36.395,20.635 39.139,17.884 42.478,17.879C45.833,17.879 48.562,20.609 48.562,23.974C48.564,27.314 45.818,30.064 42.478,30.067C39.139,30.062 36.395,27.313 36.397,23.974L36.398,23.974Z" style="fill:white;fill-rule:nonzero;"/>
                </g>
            </g>
            <g id="B7" serif:id="B">
                <g>
                    <path d="M1.305,41.202C5.259,54.386 17.488,64 31.959,64C49.632,64 63.959,49.673 63.959,32C63.959,14.327 49.632,0 31.959,0C15.001,0 1.124,13.193 0.028,29.874C2.102,33.351 2.907,35.502 1.303,41.202L1.305,41.202Z" style="fill:url(#_Linear8);fill-rule:nonzero;"/>
                    <path d="M30.31,23.985L30.313,24.143L22.483,35.518C21.215,35.46 19.943,35.683 18.735,36.18C18.209,36.394 17.707,36.662 17.237,36.98L0.042,29.893C0.042,29.893 -0.356,36.439 1.302,41.317L13.458,46.333C14.058,49.061 15.938,51.453 18.7,52.603C23.194,54.47 28.43,52.313 30.303,47.821C30.786,46.664 31.019,45.418 30.987,44.165L42.18,36.16L42.455,36.165C49.16,36.165 54.61,30.699 54.61,23.985C54.61,17.271 49.17,11.825 42.455,11.811C35.753,11.811 30.3,17.271 30.3,23.985L30.31,23.985ZM28.43,47.035C26.976,50.535 22.964,52.182 19.477,50.729C17.93,50.079 16.675,48.882 15.953,47.367L19.91,49.007C20.524,49.262 21.182,49.394 21.847,49.394C23.879,49.394 25.721,48.165 26.501,46.288C27.565,43.733 26.34,40.754 23.786,39.687L19.686,37.992C21.264,37.392 23.058,37.372 24.736,38.069C26.436,38.772 27.736,40.096 28.432,41.789C29.128,43.482 29.124,45.349 28.422,47.035M42.466,32.1C38.022,32.088 34.372,28.431 34.368,23.987C34.373,19.544 38.023,15.888 42.466,15.876C46.91,15.887 50.561,19.543 50.566,23.987C50.562,28.431 46.91,32.089 42.466,32.1M36.398,23.974C36.395,20.635 39.139,17.884 42.478,17.879C45.833,17.879 48.562,20.609 48.562,23.974C48.564,27.314 45.818,30.064 42.478,30.067C39.139,30.062 36.395,27.313 36.397,23.974L36.398,23.974Z" style="fill:white;fill-rule:nonzero;"/>
                </g>
            </g>
        </g>
    </g>
    <defs>
        <linearGradient id="_Linear1" x1="0" y1="0" x2="1" y2="0" gradientUnits="userSpaceOnUse" gradientTransform="matrix(3.91887e-15,64,-64,3.91887e-15,31.9935,0)"><stop offset="0" style="stop-color:rgb(17,29,46);stop-opacity:1"/><stop offset="0.21" style="stop-color:rgb(5,24,57);stop-opacity:1"/><stop offset="0.41" style="stop-color:rgb(10,27,72);stop-opacity:1"/><stop offset="0.58" style="stop-color:rgb(19,46,98);stop-opacity:1"/><stop offset="0.74" style="stop-color:rgb(20,75,126);stop-opacity:1"/><stop offset="0.87" style="stop-color:rgb(19,100,151);stop-opacity:1"/><stop offset="1" style="stop-color:rgb(19,135,184);stop-opacity:1"/></linearGradient>
        <linearGradient id="_Linear2" x1="0" y1="0" x2="1" y2="0" gradientUnits="userSpaceOnUse" gradientTransform="matrix(3.91887e-15,64,-64,3.91887e-15,31.9935,0)"><stop offset="0" style="stop-color:rgb(17,29,46);stop-opacity:1"/><stop offset="0.21" style="stop-color:rgb(5,24,57);stop-opacity:1"/><stop offset="0.41" style="stop-color:rgb(10,27,72);stop-opacity:1"/><stop offset="0.58" style="stop-color:rgb(19,46,98);stop-opacity:1"/><stop offset="0.74" style="stop-color:rgb(20,75,126);stop-opacity:1"/><stop offset="0.87" style="stop-color:rgb(19,100,151);stop-opacity:1"/><stop offset="1" style="stop-color:rgb(19,135,184);stop-opacity:1"/></linearGradient>
        <linearGradient id="_Linear3" x1="0" y1="0" x2="1" y2="0" gradientUnits="userSpaceOnUse" gradientTransform="matrix(3.91887e-15,64,-64,3.91887e-15,31.9935,0)"><stop offset="0" style="stop-color:rgb(17,29,46);stop-opacity:1"/><stop offset="0.21" style="stop-color:rgb(5,24,57);stop-opacity:1"/><stop offset="0.41" style="stop-color:rgb(10,27,72);stop-opacity:1"/><stop offset="0.58" style="stop-color:rgb(19,46,98);stop-opacity:1"/><stop offset="0.74" style="stop-color:rgb(20,75,126);stop-opacity:1"/><stop offset="0.87" style="stop-color:rgb(19,100,151);stop-opacity:1"/><stop offset="1" style="stop-color:rgb(19,135,184);stop-opacity:1"/></linearGradient>
        <linearGradient id="_Linear4" x1="0" y1="0" x2="1" y2="0" gradientUnits="userSpaceOnUse" gradientTransform="matrix(3.91887e-15,64,-64,3.91887e-15,31.9935,0)"><stop offset="0" style="stop-color:rgb(17,29,46);stop-opacity:1"/><stop offset="0.21" style="stop-color:rgb(5,24,57);stop-opacity:1"/><stop offset="0.41" style="stop-color:rgb(10,27,72);stop-opacity:1"/><stop offset="0.58" style="stop-color:rgb(19,46,98);stop-opacity:1"/><stop offset="0.74" style="stop-color:rgb(20,75,126);stop-opacity:1"/><stop offset="0.87" style="stop-color:rgb(19,100,151);stop-opacity:1"/><stop offset="1" style="stop-color:rgb(19,135,184);stop-opacity:1"/></linearGradient>
        <linearGradient id="_Linear5" x1="0" y1="0" x2="1" y2="0" gradientUnits="userSpaceOnUse" gradientTransform="matrix(3.91887e-15,64,-64,3.91887e-15,31.9935,0)"><stop offset="0" style="stop-color:rgb(17,29,46);stop-opacity:1"/><stop offset="0.21" style="stop-color:rgb(5,24,57);stop-opacity:1"/><stop offset="0.41" style="stop-color:rgb(10,27,72);stop-opacity:1"/><stop offset="0.58" style="stop-color:rgb(19,46,98);stop-opacity:1"/><stop offset="0.74" style="stop-color:rgb(20,75,126);stop-opacity:1"/><stop offset="0.87" style="stop-color:rgb(19,100,151);stop-opacity:1"/><stop offset="1" style="stop-color:rgb(19,135,184);stop-opacity:1"/></linearGradient>
        <linearGradient id="_Linear6" x1="0" y1="0" x2="1" y2="0" gradientUnits="userSpaceOnUse" gradientTransform="matrix(3.91887e-15,64,-64,3.91887e-15,31.9935,0)"><stop offset="0" style="stop-color:rgb(17,29,46);stop-opacity:1"/><stop offset="0.21" style="stop-color:rgb(5,24,57);stop-opacity:1"/><stop offset="0.41" style="stop-color:rgb(10,27,72);stop-opacity:1"/><stop offset="0.58" style="stop-color:rgb(19,46,98);stop-opacity:1"/><stop offset="0.74" style="stop-color:rgb(20,75,126);stop-opacity:1"/><stop offset="0.87" style="stop-color:rgb(19,100,151);stop-opacity:1"/><stop offset="1" style="stop-color:rgb(19,135,184);stop-opacity:1"/></linearGradient>
        <linearGradient id="_Linear7" x1="0" y1="0" x2="1" y2="0" gradientUnits="userSpaceOnUse" gradientTransform="matrix(3.91887e-15,64,-64,3.91887e-15,31.9935,0)"><stop offset="0" style="stop-color:rgb(17,29,46);stop-opacity:1"/><stop offset="0.21" style="stop-color:rgb(5,24,57);stop-opacity:1"/><stop offset="0.41" style="stop-color:rgb(10,27,72);stop-opacity:1"/><stop offset="0.58" style="stop-color:rgb(19,46,98);stop-opacity:1"/><stop offset="0.74" style="stop-color:rgb(20,75,126);stop-opacity:1"/><stop offset="0.87" style="stop-color:rgb(19,100,151);stop-opacity:1"/><stop offset="1" style="stop-color:rgb(19,135,184);stop-opacity:1"/></linearGradient>
        <linearGradient id="_Linear8" x1="0" y1="0" x2="1" y2="0" gradientUnits="userSpaceOnUse" gradientTransform="matrix(3.91887e-15,64,-64,3.91887e-15,31.9935,0)"><stop offset="0" style="stop-color:rgb(17,29,46);stop-opacity:1"/><stop offset="0.21" style="stop-color:rgb(5,24,57);stop-opacity:1"/><stop offset="0.41" style="stop-color:rgb(10,27,72);stop-opacity:1"/><stop offset="0.58" style="stop-color:rgb(19,46,98);stop-opacity:1"/><stop offset="0.74" style="stop-color:rgb(20,75,126);stop-opacity:1"/><stop offset="0.87" style="stop-color:rgb(19,100,151);stop-opacity:1"/><stop offset="1" style="stop-color:rgb(19,135,184);stop-opacity:1"/></linearGradient>
    </defs>
</svg>
